<?xml version="1.0" encoding="UTF-8" standalone="no"?>
<!-- Created with Inkscape (http://www.inkscape.org/) -->

<svg
   width="138mm"
   height="103mm"
   viewBox="0 0 138 103"
   version="1.1"
   id="svg5"
   xml:space="preserve"
   inkscape:version="1.2.1 (9c6d41e410, 2022-07-14)"
   sodipodi:docname="logogameon.svg"
   xmlns:inkscape="http://www.inkscape.org/namespaces/inkscape"
   xmlns:sodipodi="http://sodipodi.sourceforge.net/DTD/sodipodi-0.dtd"
   xmlns="http://www.w3.org/2000/svg"
   xmlns:svg="http://www.w3.org/2000/svg"><sodipodi:namedview
     id="namedview7"
     pagecolor="#ffffff"
     bordercolor="#000000"
     borderopacity="0.25"
     inkscape:showpageshadow="2"
     inkscape:pageopacity="0.0"
     inkscape:pagecheckerboard="0"
     inkscape:deskcolor="#d1d1d1"
     inkscape:document-units="mm"
     showgrid="false"
     inkscape:zoom="1.4912879"
     inkscape:cx="293.03531"
     inkscape:cy="168.3109"
     inkscape:window-width="1920"
     inkscape:window-height="1017"
     inkscape:window-x="-8"
     inkscape:window-y="-8"
     inkscape:window-maximized="1"
     inkscape:current-layer="layer1" /><defs
     id="defs2"><rect
       x="171.6637"
       y="358.07977"
       width="418.43027"
       height="147.5235"
       id="rect676" /><rect
       x="146.18237"
       y="304.43484"
       width="13.411227"
       height="120.70104"
       id="rect175" /><rect
       x="146.18237"
       y="292.36475"
       width="556.56592"
       height="238.71983"
       id="rect119" /><rect
       x="112.65431"
       y="297.72925"
       width="595.4585"
       height="126.06553"
       id="rect113" /></defs><g
     inkscape:label="Camada 1"
     inkscape:groupmode="layer"
     id="layer1"><text
       xml:space="preserve"
       transform="scale(0.26458333)"
       id="text111"
       style="white-space:pre;shape-inside:url(#rect113);fill:#000000" /><text
       xml:space="preserve"
       transform="scale(0.26458333)"
       id="text117"
       style="font-size:74.6667px;line-height:5.4;white-space:pre;shape-inside:url(#rect119);fill:#000000"><tspan
         x="146.18164"
         y="754.13809"
         id="tspan1206"><tspan
           dx="0 57.895863 51.041691 62.927116 47.213562 386.20331 58.770874"
           id="tspan1204">GAME ON</tspan></tspan></text><text
       xml:space="preserve"
       transform="scale(0.26458333)"
       id="text173"
       style="white-space:pre;shape-inside:url(#rect175);fill:#000000" /><text
       xml:space="preserve"
       style="font-size:27.5076px;fill:#000000;stroke-width:0.368404"
       x="40.726002"
       y="110.076"
       id="text181"><tspan
         sodipodi:role="line"
         id="tspan179"
         style="fill:#000000;stroke-width:0.368404"
         x="40.726002"
         y="110.076" /></text><rect
       style="fill:#2b2200;stroke-width:0.322697"
       id="rect620"
       width="137.85481"
       height="102.72577"
       x="-6.4543597e-06"
       y="1.1751197e-06" /><path
       style="fill:#00ff00;stroke-width:0.103884"
       d="m 76.176543,86.851004 c -1.44199,-0.42827 -2.302,-1.31483 -2.56507,-2.64422 -0.29538,-1.4927 0.52777,-2.98659 2.01998,-3.66589 0.50603,-0.23037 0.74042,-0.27298 1.51243,-0.27494 0.793,-0.002 0.99721,0.036 1.54709,0.28825 1.11342,0.51073 1.73196,1.25071 2.00499,2.3987 0.25923,1.08996 -0.20159,2.37765 -1.14671,3.20422 -0.80058,0.70016 -2.30763,1.01022 -3.37271,0.69388 z m 2.06891,-1.53081 c 0.92701,-0.43889 1.34238,-1.79029 0.81059,-2.63723 -0.39192,-0.62417 -0.92557,-0.96571 -1.61237,-1.03193 -1.04321,-0.10058 -1.86642,0.32068 -2.24685,1.14977 -0.8211,1.78949 1.14989,3.41834 3.04863,2.51939 z"
       id="path923-2" /><path
       style="fill:#00ff00;stroke-width:0.103884"
       d="m 88.530443,86.849954 c -1.44199,-0.42827 -2.30201,-1.31483 -2.56507,-2.64423 -0.29539,-1.49269 0.52777,-2.98658 2.01997,-3.66589 0.50603,-0.23037 0.74042,-0.27297 1.51243,-0.27493 0.793,-0.002 0.99721,0.036 1.54709,0.28825 1.11343,0.51073 1.73196,1.25071 2.005,2.39871 0.25923,1.08995 -0.2016,2.37763 -1.14672,3.20421 -0.80058,0.70016 -2.30762,1.01022 -3.3727,0.69388 z m 2.0689,-1.53081 c 0.92702,-0.43889 1.34239,-1.79029 0.81059,-2.63723 -0.39192,-0.62417 -0.92557,-0.96571 -1.61237,-1.03193 -1.0432,-0.10058 -1.86641,0.32068 -2.24684,1.14977 -0.82111,1.78948 1.14988,3.41833 3.04862,2.51939 z"
       id="path923-8" /><text
       xml:space="preserve"
       transform="matrix(0.36569666,0,0,0.36569666,-58.885901,-129.74928)"
       id="text674"
       style="font-size:74.6667px;white-space:pre;shape-inside:url(#rect676);fill:#ffffff"><tspan
         x="171.66406"
         y="426.20077"
         id="tspan1212"><tspan
   style="fill:#00ff00"
   id="tspan1208">G</tspan>AME <tspan
   style="fill:#00ff00"
   id="tspan1210">O</tspan>N</tspan></text><path
       style="fill:#00ff00;stroke-width:0.0994369"
       d="m 51.431438,97.455349 c -3.346837,-0.21103 -5.938196,-1.13021 -8.338248,-2.957615 -2.141457,-1.63053 -3.792223,-3.91565 -4.551487,-6.30049 -0.507079,-1.59271 -0.561004,-1.96966 -0.559951,-3.91416 0.0011,-1.94595 0.07108,-2.42549 0.565069,-3.86988 1.411497,-4.12707 4.773222,-7.33047 8.996845,-8.5731 2.351867,-0.69193 1.58076,-0.64134 10.347042,-0.67873 l 7.942765,-0.0339 0.0492,-1.90289 c 0.0535,-2.06784 0.14495,-2.49467 0.74139,-3.45859 0.64732,-1.04617 1.99074,-1.98548 3.22314,-2.25359 0.28805,-0.0627 2.63189,-0.10106 6.26143,-0.10254 3.73128,-0.002 5.98351,-0.0393 6.31246,-0.10597 1.11857,-0.2266 1.782,-1.0122 1.78966,-2.11924 0.007,-0.97832 -0.42628,-1.61721 -1.37021,-2.02145 -0.45699,-0.19572 -0.57751,-0.19719 -16.32577,-0.19929 -17.733553,-0.003 -16.341949,0.0531 -17.392284,-0.6934 -0.565435,-0.40187 -1.019266,-0.95613 -1.32485,-1.61804 -0.147155,-0.31875 -0.193452,-0.63222 -0.185555,-1.25641 0.01373,-1.08513 0.250843,-1.58731 1.149406,-2.43431 1.122774,-1.05835 0.654089,-0.99689 8.041209,-1.05423 l 6.343204,-0.0493 0.58488,-0.27127 c 0.76844,-0.35641 1.40637,-0.95478 1.77591,-1.66576 0.2967,-0.57083 0.29953,-0.59256 0.33069,-2.53284 l 0.0314,-1.95709 h -1.2773 c -1.85745,0 -1.70139,0.39084 -1.70139,-4.26091 0,-2.63438 0.0353,-3.82469 0.11836,-3.99701 0.0653,-0.13532 0.26903,-0.29686 0.45426,-0.36013 l 0.3359,-0.11475 0.0317,-1.76819 c 0.0426,-2.37749 -0.16583,-2.19861 2.60757,-2.2378 2.28235,-0.0322 2.63712,0.0231 2.804,0.43779 0.0516,0.12805 0.0937,0.98762 0.0937,1.91016 v 1.67733 l 0.30679,0.0637 c 0.61846,0.12832 0.61399,0.0966 0.61399,4.35989 0,3.5553 -0.0151,3.89905 -0.17904,4.08508 -0.16193,0.18368 -0.30131,0.2055 -1.45791,0.22815 l -1.27888,0.0251 -0.0613,1.98125 c -0.0337,1.08968 -0.10853,2.11424 -0.16626,2.27677 -0.57143,1.60889 -1.96649,2.9082 -3.60906,3.36135 -0.21627,0.0596 -2.85,0.1206 -6.650135,0.15387 -5.856681,0.0514 -6.315989,0.0674 -6.637996,0.23327 -1.645465,0.84749 -1.745003,2.84037 -0.190409,3.81228 l 0.419033,0.26197 16.121297,0.0483 16.12129,0.0483 0.61386,0.23315 c 0.85673,0.32541 1.77725,1.20194 2.08844,1.98865 0.32439,0.82008 0.3679,1.35074 0.17042,2.07887 -0.29018,1.07 -0.97786,1.88893 -2.00308,2.38537 l -0.5627,0.27247 -6.39437,0.0483 -6.39437,0.0483 -0.68276,0.30468 c -0.81581,0.36407 -1.494,0.99687 -1.88612,1.75989 -0.26981,0.52501 -0.28166,0.61423 -0.32531,2.44821 l -0.0454,1.90332 8.7849,0.0341 c 8.56058,0.0333 8.80886,0.0395 9.72344,0.24177 5.037,1.11415 8.91415,4.38234 10.4057,8.77135 0.57035,1.6783 0.62048,2.00614 0.62065,4.05914 2.2e-4,1.97178 -0.0676,2.46693 -0.52889,3.86583 -1.29525,3.92792 -4.3576,7.007105 -8.46026,8.506755 -3.40167,1.24341 -7.43684,1.07523 -10.78721,-0.44958 -0.84276,-0.38354 -2.02522,-1.06844 -2.56426,-1.485235 -0.96689,-0.74762 -1.81648,-1.55502 -2.5424,-2.41616 -1.07201,-1.27166 -1.18554,-1.30459 -4.50219,-1.3052 -3.57731,-7.3e-4 -3.18306,-0.15593 -5.24735,2.06689 -1.15001,1.23834 -2.50523,2.219835 -4.158847,3.011945 -0.939617,0.45009 -1.535566,0.66081 -2.99679,1.05954 -0.726655,0.1983 -2.829847,0.41315 -3.580842,0.3658 z m 2.461278,-1.47798 c 1.222457,-0.22103 1.915902,-0.39576 2.500747,-0.63013 0.663928,-0.26606 1.613923,-0.714805 1.94388,-0.918235 0.16882,-0.10409 0.37599,-0.21917 0.4604,-0.25574 0.0844,-0.0366 0.17648,-0.0917 0.20462,-0.12242 0.0282,-0.0308 0.23531,-0.18412 0.46039,-0.34081 0.65899,-0.45874 1.6756,-1.40817 2.17741,-2.03351 0.88952,-1.10851 1.48536,-1.5519 2.47769,-1.84375 0.66092,-0.1944 5.88389,-0.19377 6.56247,7.3e-4 0.92134,0.26415 1.5588,0.74173 2.4599,1.84296 2.72874,3.334795 7.56529,5.076835 11.95698,4.306665 4.9317,-0.86484 8.6545,-4.055415 9.98235,-8.555285 0.22043,-0.74694 0.44091,-2.24711 0.44091,-2.99983 0,-0.81458 -0.2203,-2.39241 -0.44506,-3.18744 -0.54684,-1.93434 -1.6882,-3.79211 -3.22707,-5.25263 -1.7115,-1.62439 -3.6883,-2.67348 -6.09197,-3.23305 l -0.92079,-0.21435 h -17.44381 c -16.674564,0 -17.479911,0.008 -18.262294,0.18059 -2.509589,0.5537 -4.365436,1.51923 -6.145648,3.19737 -2.031074,1.91462 -3.143848,3.97836 -3.572165,6.62489 -0.370875,2.29161 0.04882,4.98634 1.068724,6.86188 0.903584,1.66164 1.814594,2.81342 2.970415,3.75547 1.995324,1.626285 4.005779,2.489305 6.855235,2.942725 0.746368,0.11877 2.590931,0.054 3.586686,-0.12614 z M 68.841563,44.054144 c 0.0331,-0.10163 0.0275,-5.08197 -0.006,-5.75233 l -0.0111,-0.21934 -2.22523,0.026 -2.22525,0.0261 -0.0271,2.89832 c -0.0149,1.59409 -0.005,2.95317 0.0223,3.0202 0.0713,0.17564 4.4155,0.17665 4.47271,7.3e-4 z m -0.96095,-8.64983 -0.0284,-1.32888 h -1.27887 -1.27887 l -0.0284,1.32888 -0.0284,1.32889 h 1.33581 1.3358 z"
       id="path919" /><path
       style="fill:#00ff00;stroke-width:0.103884"
       d="m 82.243543,92.821924 c -1.44198,-0.42827 -2.30199,-1.31483 -2.56506,-2.64422 -0.29539,-1.4927 0.52776,-2.98659 2.01997,-3.66589 0.50603,-0.23037 0.74043,-0.27298 1.51244,-0.27494 0.793,-0.002 0.9972,0.036 1.54708,0.28825 1.11343,0.51073 1.73196,1.25071 2.00499,2.39871 0.25924,1.08996 -0.20159,2.37764 -1.1467,3.20421 -0.80058,0.70017 -2.30763,1.01022 -3.37272,0.69388 z m 2.06891,-1.5308 c 0.92702,-0.4389 1.34239,-1.7903 0.8106,-2.63724 -0.39193,-0.62417 -0.92558,-0.96571 -1.61238,-1.03193 -1.04321,-0.10058 -1.86641,0.32069 -2.24685,1.14977 -0.8211,1.78949 1.1499,3.41834 3.04863,2.5194 z"
       id="path923" /><path
       style="fill:#00ff00;stroke-width:0.103884"
       d="m 82.299904,81.350472 c -1.44199,-0.42827 -2.30201,-1.31483 -2.56507,-2.64423 -0.29539,-1.4927 0.52777,-2.98658 2.01997,-3.66589 0.50603,-0.23037 0.74042,-0.27297 1.51243,-0.27494 0.793,-0.002 0.99721,0.036 1.54709,0.28826 1.11343,0.51073 1.73196,1.25071 2.00499,2.3987 0.25923,1.08996 -0.20159,2.37764 -1.14671,3.20421 -0.80058,0.70017 -2.30762,1.01023 -3.3727,0.69389 z m 2.0689,-1.53081 c 0.92702,-0.43889 1.34239,-1.79028 0.81059,-2.63724 -0.39191,-0.62415 -0.92557,-0.96571 -1.61237,-1.03192 -1.0432,-0.10059 -1.86641,0.32068 -2.24684,1.14976 -0.82111,1.78949 1.14988,3.41834 3.04862,2.5194 z"
       id="path923-3" /><path
       style="fill:#00ff00;stroke-width:0.104766"
       d="m 65.582473,80.952664 c -0.49236,-0.24543 -0.71575,-0.46232 -0.93452,-0.90739 -0.39776,-0.80918 -0.21108,-1.68094 0.48159,-2.24909 0.52194,-0.42811 0.98937,-0.53442 2.34958,-0.53442 1.3537,0 1.82789,0.10652 2.33854,0.52537 0.96835,0.79426 0.90856,2.24299 -0.12292,2.97871 -0.4058,0.28943 -0.42444,0.29228 -2.09839,0.32041 -1.38235,0.0232 -1.74793,-7.6e-4 -2.01388,-0.13359 z m 3.20409,-1.29033 c 0.27836,-0.20282 0.33759,-0.48605 0.15583,-0.74518 -0.16054,-0.2289 -0.2216,-0.23889 -1.45963,-0.23889 -1.21231,0 -1.30249,0.0139 -1.46081,0.22505 -0.22647,0.30204 -0.21287,0.43747 0.0685,0.68235 0.20826,0.18126 0.37695,0.20606 1.38201,0.20324 0.73002,-0.002 1.20614,-0.0479 1.3141,-0.12657 z"
       id="path931" /><path
       style="fill:#00ff00;stroke-width:0.104766"
       d="m 65.738933,85.656534 c -0.49237,-0.24543 -0.71575,-0.46233 -0.93452,-0.9074 -0.39776,-0.80917 -0.21109,-1.68094 0.48159,-2.24908 0.52194,-0.42811 0.98937,-0.53443 2.34958,-0.53443 1.3537,0 1.8279,0.10653 2.33854,0.52537 0.96835,0.79427 0.90857,2.24301 -0.12291,2.97872 -0.40581,0.28943 -0.42444,0.29227 -2.09839,0.32041 -1.38236,0.0232 -1.74794,-7.6e-4 -2.01389,-0.13359 z m 3.20409,-1.29034 c 0.27837,-0.20282 0.33759,-0.48603 0.15584,-0.74518 -0.16054,-0.22889 -0.2216,-0.23888 -1.45964,-0.23888 -1.21231,0 -1.30249,0.0139 -1.46081,0.22504 -0.22646,0.30204 -0.21287,0.43748 0.0685,0.68235 0.20827,0.18126 0.37695,0.20607 1.38202,0.20325 0.73001,-0.002 1.20613,-0.0479 1.3141,-0.12658 z"
       id="path931-5" /><path
       style="fill:#00ff00;stroke-width:0.0965462"
       d="m 50.150933,91.152834 c -0.172769,-0.17815 -0.193083,-0.38431 -0.220666,-2.23955 l -0.03038,-2.04334 h -2.146745 -2.146743 l -0.250488,-0.234 -0.250488,-0.234 0.03028,-2.10434 0.03028,-2.10434 0.249723,-0.17906 c 0.227937,-0.16347 0.434897,-0.17926 2.37236,-0.18116 l 2.122638,-0.002 v -1.91758 c 0,-2.07491 0.07009,-2.40908 0.520581,-2.48216 0.125722,-0.0203 1.180013,-0.0336 2.342868,-0.0294 1.589919,0.006 2.153515,0.038 2.272471,0.13027 0.135701,0.10521 0.158188,0.41949 0.158188,2.21079 v 2.08816 l 2.172585,0.003 c 2.275506,0.003 2.368886,0.0187 2.605766,0.43414 0.14963,0.26245 0.15916,3.7124 0.0113,4.10852 -0.16789,0.44991 -0.40533,0.49335 -2.696724,0.49335 h -2.092962 v 2.03665 c 0,2.67738 0.25616,2.44244 -2.662985,2.44244 -2.109502,0 -2.208486,-0.008 -2.390895,-0.19621 z m 3.774888,-3.14901 c 0.02321,-1.55778 0.06273,-2.07516 0.167469,-2.19289 0.119961,-0.13481 0.416471,-0.15407 2.372362,-0.15407 h 2.235271 v -1.25974 -1.25976 h -2.197558 c -2.064371,0 -2.209661,-0.0113 -2.397335,-0.18662 -0.187666,-0.17533 -0.199775,-0.31105 -0.199775,-2.23955 v -2.05291 H 52.613107 51.31996 l -0.03038,2.04333 c -0.02758,1.85524 -0.04789,2.06141 -0.220666,2.23955 -0.182564,0.18825 -0.280881,0.1962 -2.422303,0.1962 h -2.232019 v 1.25976 1.25974 h 2.232017 c 2.141401,0 2.239742,0.008 2.422304,0.1962 0.172422,0.17778 0.193149,0.38366 0.220764,2.19288 l 0.03048,1.9967 h 1.287643 1.287643 z"
       id="path933" /></g></svg>
