<?xml version="1.0" encoding="UTF-8" standalone="no"?>
<!-- Created with Inkscape (http://www.inkscape.org/) -->

<svg
   width="100mm"
   height="84mm"
   viewBox="0 0 100 84"
   version="1.1"
   id="svg5"
   xml:space="preserve"
   inkscape:version="1.2.1 (9c6d41e410, 2022-07-14)"
   sodipodi:docname="sonic.svg"
   xmlns:inkscape="http://www.inkscape.org/namespaces/inkscape"
   xmlns:sodipodi="http://sodipodi.sourceforge.net/DTD/sodipodi-0.dtd"
   xmlns="http://www.w3.org/2000/svg"
   xmlns:svg="http://www.w3.org/2000/svg"><sodipodi:namedview
     id="namedview7"
     pagecolor="#ffffff"
     bordercolor="#000000"
     borderopacity="0.25"
     inkscape:showpageshadow="2"
     inkscape:pageopacity="0.0"
     inkscape:pagecheckerboard="0"
     inkscape:deskcolor="#d1d1d1"
     inkscape:document-units="mm"
     showgrid="false"
     inkscape:zoom="2.1089995"
     inkscape:cx="274.53776"
     inkscape:cy="196.77577"
     inkscape:window-width="1920"
     inkscape:window-height="1017"
     inkscape:window-x="-8"
     inkscape:window-y="-8"
     inkscape:window-maximized="1"
     inkscape:current-layer="layer1" /><defs
     id="defs2"><filter
       inkscape:collect="always"
       style="color-interpolation-filters:sRGB"
       id="filter9587"
       x="-0.24889991"
       y="-0.3357507"
       width="1.4977998"
       height="1.6715014"><feGaussianBlur
         inkscape:collect="always"
         stdDeviation="0.32207106"
         id="feGaussianBlur9589" /></filter></defs><g
     inkscape:label="Camada 1"
     inkscape:groupmode="layer"
     id="layer1"><path
       style="fill:#ffffff;fill-opacity:1;stroke:#000000;stroke-width:0.7;stroke-dasharray:none;stroke-opacity:1"
       d="m 50.558134,55.074489 c -1.70872,-14.63844 3.436633,-21.301919 11.416343,-24.087245 5.72274,-0.506285 9.44657,3.245099 10.16181,13.172715 0.43685,5.54048 -0.98939,11.52553 0.87819,13.67453 3.69809,1.33836 12.70626,-12.29072 13.17271,-10.28726 2.53534,2.00308 -1.04145,11.516515 -4.64182,15.556355 -1.69515,1.90206 -3.29948,1.95574 -7.02544,3.0109 0,1.10245 -2.341,-2.85644 -4.39091,-2.25818 -8.43284,2.46111 -12.88085,-4.423245 -19.570883,-8.781815 z"
       id="path6066"
       sodipodi:nodetypes="cccccacsc" /><ellipse
       style="fill:#1c1c1c;fill-opacity:1;stroke:#000000;stroke-width:0.3;stroke-dasharray:none;stroke-opacity:1"
       id="path6424-0"
       cx="94.801994"
       cy="16.927414"
       rx="1.9445436"
       ry="6.2727213"
       transform="rotate(24.849888)" /><path
       style="fill:#2a21f0;fill-opacity:1;stroke:#000000;stroke-width:0.765;stroke-opacity:1;stroke-dasharray:none"
       d="M 20.198164,2.6345436 C 27.4928,8.5465926 34.512281,14.64208 36.883601,23.83634 15.266956,24.821573 6.2079993,33.873468 3.1363613,41.525414 12.36147,40.345046 20.542617,42.6452 28.101792,47.798136 c -8.55028,7.723636 -15.467746,14.741368 -17.438166,23.209078 8.911927,-3.53779 20.499774,-5.39527 34.374512,0 -7.58065,-8.45915 -9.214419,-17.981927 -3.763631,-19.696354 3.019559,-0.356184 5.494951,-0.619651 9.158171,3.63818 -1.331603,-13.094216 3.387327,-22.331785 11.039989,-23.710889 9.60749,-2.40498 10.98156,10.126742 10.53817,19.194528 -0.19958,4.081548 -1.39951,11.759275 6.64909,4.516361 5.69428,-7.238893 6.82608,-7.873548 7.77818,-7.401811 2.02488,0.752725 -0.85147,8.029081 -2.50909,12.043621 3.46507,-3.09434 6.1317,-7.306509 6.27272,-15.054529 -1.08727,-4.379276 -2.17455,-2.136842 -3.26182,-3.136361 C 83.075917,21.792272 61.894207,10.913681 60.092667,10.036353 48.099501,4.3434816 34.906581,-1.4556044 20.198164,2.6345436 Z"
       id="path306"
       sodipodi:nodetypes="cccccccccsccccccc" /><path
       style="fill:#2a21f0;fill-opacity:1;stroke:#000000;stroke-width:0.3;stroke-dasharray:none;stroke-opacity:1"
       d="m 82.688167,30.201151 c 5.40468,0.95415 10.84049,1.278323 13.35711,3.618733 -0.95712,3.79779 -2.54636,7.850586 -5.8244,10.603956 -0.67782,-1.34304 -0.32682,-2.322128 -3.04341,-2.872308 -0.78791,-4.757486 -3.29961,-8.141895 -4.4893,-11.350381 z"
       id="path2419"
       sodipodi:nodetypes="ccccc" /><path
       style="fill:#2a21f0;fill-opacity:1;stroke:#000000;stroke-width:0.6;stroke-dasharray:none;stroke-opacity:1"
       d="M 41.528364,30.168306 C 42.171359,11.4485 45.647781,12.355055 58.560622,22.894111"
       id="path5997"
       sodipodi:nodetypes="cc" /><path
       style="fill:#e9d158;fill-opacity:1;stroke:#000000;stroke-width:0.7;stroke-dasharray:none;stroke-opacity:1"
       d="m 44.810625,28.748948 c -0.830545,-3.886525 -1.372192,-9.858115 3.193548,-10.379035 1.331822,-0.151952 3.97008,1.730671 6.741933,5.23387 z"
       id="path5999"
       sodipodi:nodetypes="cscc" /><path
       style="fill:none;fill-opacity:1;stroke:#000000;stroke-width:0.6;stroke-dasharray:none;stroke-opacity:1"
       d="m 52.397689,34.006956 c 5.453622,-7.759308 14.094668,-6.569702 18.582288,-1.54634"
       id="path6064"
       sodipodi:nodetypes="cc" /><path
       style="fill:#dac357;fill-opacity:1;stroke:#000000;stroke-width:0.6;stroke-dasharray:none;stroke-opacity:1"
       d="m 38.765417,52.565399 c -5.332888,7.498514 3.267375,16.947335 9.785445,21.201805 5.77902,3.77208 14.043975,2.19934 20.699975,0.37636 2.22745,-0.61007 5.16343,-1.44807 5.89637,-3.63817 0.58409,-1.74533 -0.9324,-3.64964 -2.00727,-5.14363 -2.71207,-3.769561 -7.06169,-0.24294 -10.28727,-1.50546 C 55.853163,61.116635 51.695416,52.321183 44.285414,51.05995 42.405253,50.739934 40.413345,50.248266 38.765417,52.565399 Z"
       id="path6068"
       sodipodi:nodetypes="saaassas" /><ellipse
       style="fill:#010101;fill-opacity:1;stroke:#000000;stroke-width:0.3;stroke-dasharray:none;stroke-opacity:1"
       id="path6186"
       cx="75.460846"
       cy="68.184471"
       rx="6.9627209"
       ry="3.9518147" /><path
       style="fill:none;fill-opacity:1;stroke:#000000;stroke-width:0.7;stroke-dasharray:none;stroke-opacity:1"
       d="m 45.289048,58.461764 c -0.496689,8.02565 10.495466,14.17484 14.301809,13.92544"
       id="path6253"
       sodipodi:nodetypes="cc" /><path
       style="fill:none;fill-opacity:1;stroke:#000000;stroke-width:0.6;stroke-dasharray:none;stroke-opacity:1"
       d="m 43.708793,60.607797 c 0.394095,-1.688869 1.888335,-2.422303 4.541605,-2.14916"
       id="path6318"
       sodipodi:nodetypes="cc" /><ellipse
       style="fill:#1c1c1c;fill-opacity:1;stroke:#000000;stroke-width:0.3;stroke-dasharray:none;stroke-opacity:1"
       id="path6424"
       cx="77.532661"
       cy="16.346798"
       rx="1.9445436"
       ry="6.2727213"
       transform="rotate(25.082095)" /><ellipse
       style="fill:#ffffff;fill-opacity:1;stroke:#000000;stroke-width:0.868318;stroke-dasharray:none;stroke-opacity:1;filter:url(#filter9587)"
       id="path9427"
       cx="79.538109"
       cy="68.749023"
       rx="2.4249296"
       ry="1.7976575" /></g></svg>
